FFmpeg version SVN-r25716, Copyright (c) 2000-2010 the FFmpeg developers  built on Nov 10 2010 12:23:18 with gcc 4.1.2 20080704 (Red Hat 4.1.2-48)  configuration: --enable-libmp3lame --enable-shared --disable-mmx --arch=x86_64  libavutil     50.33. 0 / 50.33. 0  libavcore      0.12. 1 /  0.12. 1  libavcodec    52.94. 4 / 52.94. 4  libavformat   52.84. 0 / 52.84. 0  libavdevice   52. 2. 2 / 52. 2. 2  libavfilter    1.59. 0 /  1.59. 0  libswscale     0.12. 0 /  0.12. 0Seems stream 0 codec frame rate differs from container frame rate: 1200.00 (1200/1) -> 15.00 (15/1)Input #0, mov,mp4,m4a,3gp,3g2,mj2, from '/RAID10/data/converted_video_files/15801.mov':  Metadata:    major_brand     : qt      minor_version   : 537199360    compatible_brands: qt    Duration: 00:00:05.66, start: 0.000000, bitrate: 6064 kb/s    Stream #0.0(eng): Video: h264, yuv420p, 640x640, 6055 kb/s, PAR 1:1 DAR 1:1, 15 fps, 15 tbr, 600 tbn, 1200 tbc[buffer @ 0xea48f20] w:640 h:640 pixfmt:yuv420pOutput #0, flv, to '/RAID10/data/converted_video_files/15801.flv':  Metadata:    encoder         : Lavf52.84.0    Stream #0.0(eng): Video: flv, yuv420p, 640x640 [PAR 1:1 DAR 1:1], q=2-31, 600 kb/s, 1k tbn, 24 tbcStream mapping:  Stream #0.0 -> #0.0Press [q] to stop encodingframe=   21 fps=  0 q=5.8 size=     170kB time=1.38 bitrate=1015.2kbits/s    frame=   42 fps= 41 q=5.6 size=     277kB time=2.75 bitrate= 824.6kbits/s    frame=   78 fps= 50 q=5.5 size=     438kB time=5.17 bitrate= 694.8kbits/s    frame=   85 fps= 51 q=3.6 Lsize=     480kB time=5.62 bitrate= 698.5kbits/s    video:478kB audio:0kB global headers:0kB muxing overhead 0.320693%